<svg width="289" height="125" viewBox="0 0 289 125" fill="none" xmlns="http://www.w3.org/2000/svg">
<path d="M131.086 58.2573C119.826 58.2573 111.603 49.6638 111.603 38.922C111.603 28.1802 119.826 19.5868 131.086 19.5868C141.606 19.5868 148.199 26.18 150.199 34.8475H138.643C137.235 31.8843 135.013 29.6618 131.086 29.6618C126.345 29.6618 122.863 33.0696 122.863 38.922C122.863 44.7745 126.345 48.1822 131.086 48.1822C135.013 48.1822 137.235 45.9598 138.643 42.9965H150.199C148.199 51.664 141.606 58.2573 131.086 58.2573ZM156.654 57.4424V1.8813H167.84V57.4424H156.654ZM182.611 15.3641C178.833 15.3641 175.648 12.2527 175.648 8.40047C175.648 4.54823 178.833 1.43681 182.611 1.43681C186.538 1.43681 189.649 4.54823 189.649 8.40047C189.649 12.2527 186.538 15.3641 182.611 15.3641ZM177.055 57.4424V20.4017H188.241V57.4424H177.055ZM214.717 58.2573C203.457 58.2573 195.234 49.6638 195.234 38.922C195.234 28.1802 203.457 19.5868 214.717 19.5868C225.237 19.5868 231.83 26.18 233.83 34.8475H222.274C220.866 31.8843 218.644 29.6618 214.717 29.6618C209.976 29.6618 206.494 33.0696 206.494 38.922C206.494 44.7745 209.976 48.1822 214.717 48.1822C218.644 48.1822 220.866 45.9598 222.274 42.9965H233.83C231.83 51.664 225.237 58.2573 214.717 58.2573ZM265.25 57.4424L251.471 40.9222V57.4424H240.285V1.8813H251.471V33.6622L262.287 20.4017H275.548L261.917 37.1441L278.807 57.4424H265.25Z" fill="white"/>
<path fill-rule="evenodd" clip-rule="evenodd" d="M110.245 112.993C111.431 120.165 118.838 124.991 128.849 123.855C138.05 122.811 144.165 117.569 143.389 110.724C142.721 104.835 139.359 101.489 131.699 100.345L124.8 99.3379C122.991 99.1703 120.937 98.8069 120.72 96.8931C120.553 95.4209 121.925 94.3706 124.207 94.1117C126.194 93.8862 128.036 94.3482 128.86 97.0133L140.049 95.744C138.575 88.0082 131.556 84.6293 123.459 85.5479C113.743 86.6503 108.609 92.0043 109.336 98.4083C109.962 103.929 113.252 107.955 119.922 108.913L127.573 109.983C130.536 110.467 131.928 110.906 132.12 112.599C132.278 113.997 131.136 115.096 128.265 115.422C125.1 115.781 122.504 114.584 121.949 111.665L110.245 112.993ZM151.411 120.475L162.526 119.214L160.497 101.327C159.737 94.6286 162.642 91.3168 166.838 90.8408C170.886 90.3815 173.151 93.2559 173.727 98.335L175.923 117.694L187.038 116.433L184.625 95.1601C183.531 85.5173 177.545 79.4118 168.491 80.439C163.706 80.9818 160.251 83.3868 158.777 86.1636L156.263 64.0072L145.148 65.2682L151.411 120.475ZM191.322 97.308C192.55 108.129 202.261 115.526 212.861 114.324C223.461 113.121 231.268 103.736 230.041 92.9153C228.813 82.0947 219.102 74.6971 208.502 75.8996C197.902 77.1022 190.095 86.4874 191.322 97.308ZM261.362 88.3179L269.897 107.033L281.086 105.763L288.982 67.589L277.058 68.9419L273.218 92.2665L263.661 70.4618L255.122 71.4305L250.693 94.8219L241.725 72.9505L229.801 74.3033L246.122 109.73L257.31 108.461L261.362 88.3179Z" fill="#B3FFB1"/>
<path fill-rule="evenodd" clip-rule="evenodd" d="M109.225 69.3836C109.225 90.3993 75.6317 124 54.6089 124C33.5861 124 0 90.3993 0 69.3836C0 48.368 33.5933 14.7675 54.6161 14.7675C75.6389 14.7675 109.232 48.3608 109.232 69.3836H109.225Z" fill="white"/>
<g clip-path="url(#clip0_5_341)">
<path d="M39.3993 69.4321C39.3993 61.9663 39.4017 54.4992 39.3969 47.0334C39.3969 45.6902 39.6773 44.4601 40.6866 43.5083C42.203 42.0788 44.0737 41.8175 45.905 42.8604C47.808 43.9447 49.6727 45.0994 51.5518 46.2275C58.9345 50.6557 66.3171 55.0839 73.6998 59.5145C77.0332 61.5141 80.3237 63.5915 83.7084 65.495C86.7113 67.1846 86.6624 71.6627 83.8026 73.2818C80.3893 75.2157 77.0582 77.3003 73.6914 79.3206C64.5299 84.8197 55.3696 90.32 46.2093 95.8191C43.8255 97.2498 40.8548 96.4974 39.8491 94.1259C39.5448 93.4087 39.4196 92.5602 39.416 91.7714C39.385 84.3249 39.3981 76.8785 39.3993 69.4321Z" fill="#0065FF"/>
</g>
<defs>
<clipPath id="clip0_5_341">
<rect width="46.558" height="54.3177" fill="white" transform="translate(39.397 42.2255)"/>
</clipPath>
</defs>
</svg>
